<?xml version="1.0" standalone="no"?>
<!DOCTYPE svg PUBLIC "-//W3C//DTD SVG 20010904//EN"
 "http://www.w3.org/TR/2001/REC-SVG-20010904/DTD/svg10.dtd">
<svg version="1.0" xmlns="http://www.w3.org/2000/svg"
 width="512.000000pt" height="512.000000pt" viewBox="0 0 512.000000 512.000000"
 preserveAspectRatio="xMidYMid meet">
<metadata>
Created by potrace 1.14, written by Peter Selinger 2001-2017
</metadata>
<g transform="translate(0.000000,512.000000) scale(0.100000,-0.100000)"
fill="#000000" stroke="none">
<path d="M2926 4673 c-1 -1 -395 -3 -875 -3 l-872 -2 -82 -22 c-88 -24 -195
-68 -239 -98 -14 -10 -30 -18 -35 -18 -19 0 -154 -133 -206 -203 -65 -87 -133
-223 -153 -309 -13 -55 -13 -354 0 -413 27 -119 91 -256 153 -325 160 -182
273 -259 453 -310 109 -30 81 -30 1860 -39 l95 -1 1 -792 c2 -746 6 -1003 19
-1073 17 -91 84 -257 115 -285 3 -3 13 -18 22 -35 46 -83 189 -216 298 -277
156 -88 393 -125 578 -91 130 23 298 97 382 167 8 7 51 49 95 93 126 127 220
325 233 493 6 79 8 2519 2 2710 -6 201 -114 434 -267 577 -135 126 -307 210
-473 230 -19 2 -48 6 -65 8 -85 13 -1028 29 -1039 18z m669 -63 c3 -6 -4 -10
-17 -10 -18 0 -20 2 -8 10 19 12 18 12 25 0z"/>
<path d="M1725 2529 c-100 -16 -215 -68 -313 -141 -80 -60 -524 -493 -738
-720 -93 -99 -150 -202 -184 -333 -24 -94 -29 -296 -9 -367 7 -24 13 -45 14
-48 12 -54 68 -174 110 -237 88 -129 223 -229 390 -289 76 -28 88 -29 250 -29
164 0 173 1 250 30 119 44 173 75 264 150 49 40 688 681 723 725 52 64 102
157 135 247 27 77 28 81 28 303 -1 257 -11 689 -16 694 -15 15 -823 28 -904
15z"/>
</g>
</svg>
